<svg width="130" height="24" viewBox="0 0 130 24" fill="none" xmlns="http://www.w3.org/2000/svg">
<path d="M37.1553 14.0059C37.1553 14.8535 37.0299 15.512 36.7793 15.9814C36.3145 16.8382 35.4303 17.2666 34.127 17.2666C33.375 17.2666 32.7324 17.0638 32.1992 16.6582C31.666 16.248 31.3994 15.5212 31.3994 14.4775V13.7598H32.6777V14.4775C32.6777 15.0244 32.7985 15.4368 33.04 15.7148C33.2861 15.9883 33.6667 16.125 34.1816 16.125C34.9062 16.125 35.3802 15.8766 35.6035 15.3799C35.7402 15.0745 35.8086 14.498 35.8086 13.6504V6.95801H37.1553V14.0059ZM40.293 9.67871V14.5391C40.293 14.9128 40.3522 15.2181 40.4707 15.4551C40.6895 15.8926 41.0973 16.1113 41.6943 16.1113C42.5511 16.1113 43.1344 15.7285 43.4443 14.9629C43.613 14.5527 43.6973 13.9899 43.6973 13.2744V9.67871H44.9277V17H43.7656L43.7793 15.9199C43.6198 16.1979 43.4215 16.4326 43.1846 16.624C42.7152 17.0068 42.1455 17.1982 41.4756 17.1982C40.432 17.1982 39.721 16.8496 39.3428 16.1523C39.1377 15.7786 39.0352 15.2796 39.0352 14.6553V9.67871H40.293ZM46.8555 9.67871H48.0244V10.7178C48.3708 10.2894 48.7376 9.98177 49.125 9.79492C49.5124 9.60807 49.943 9.51465 50.417 9.51465C51.4561 9.51465 52.1579 9.87695 52.5225 10.6016C52.723 10.998 52.8232 11.5654 52.8232 12.3037V17H51.5723V12.3857C51.5723 11.9391 51.5062 11.5791 51.374 11.3057C51.1553 10.8499 50.7588 10.6221 50.1846 10.6221C49.8929 10.6221 49.6536 10.6517 49.4668 10.7109C49.1296 10.8112 48.8333 11.0117 48.5781 11.3125C48.373 11.554 48.2386 11.8047 48.1748 12.0645C48.1156 12.3197 48.0859 12.6865 48.0859 13.165V17H46.8555V9.67871ZM57.6973 9.51465C58.2168 9.51465 58.7204 9.6377 59.208 9.88379C59.6956 10.1253 60.0671 10.4398 60.3223 10.8271C60.5684 11.1963 60.7324 11.627 60.8145 12.1191C60.8874 12.4564 60.9238 12.9941 60.9238 13.7324H55.5576C55.5804 14.4753 55.7559 15.0723 56.084 15.5234C56.4121 15.9701 56.9202 16.1934 57.6084 16.1934C58.251 16.1934 58.7637 15.9814 59.1465 15.5576C59.3652 15.3115 59.5202 15.0267 59.6113 14.7031H60.8213C60.7894 14.972 60.6823 15.2728 60.5 15.6055C60.3223 15.9336 60.1217 16.2025 59.8984 16.4121C59.5247 16.7767 59.0622 17.0228 58.5107 17.1504C58.2145 17.2233 57.8796 17.2598 57.5059 17.2598C56.5944 17.2598 55.8219 16.9294 55.1885 16.2686C54.555 15.6032 54.2383 14.6735 54.2383 13.4795C54.2383 12.3037 54.5573 11.349 55.1953 10.6152C55.8333 9.88151 56.6673 9.51465 57.6973 9.51465ZM59.6592 12.7549C59.609 12.2217 59.4928 11.7956 59.3105 11.4766C58.9733 10.8841 58.4105 10.5879 57.6221 10.5879C57.057 10.5879 56.583 10.793 56.2002 11.2031C55.8174 11.6087 55.6146 12.126 55.5918 12.7549H59.6592ZM65.873 17C65.9186 16.1569 66.0918 15.4232 66.3926 14.7988C66.6979 14.1745 67.2904 13.6071 68.1699 13.0967L69.4824 12.3379C70.0703 11.9961 70.4827 11.7044 70.7197 11.4629C71.0934 11.0846 71.2803 10.6517 71.2803 10.1641C71.2803 9.5944 71.1094 9.14323 70.7676 8.81055C70.4258 8.47331 69.9701 8.30469 69.4004 8.30469C68.5573 8.30469 67.974 8.6237 67.6504 9.26172C67.4772 9.60352 67.3815 10.0775 67.3633 10.6836H66.1123C66.126 9.83138 66.2832 9.13639 66.584 8.59863C67.1172 7.65072 68.0583 7.17676 69.4072 7.17676C70.5283 7.17676 71.3464 7.47982 71.8613 8.08594C72.3809 8.69206 72.6406 9.36654 72.6406 10.1094C72.6406 10.8932 72.3649 11.5632 71.8135 12.1191C71.4945 12.4427 70.9225 12.8346 70.0977 13.2949L69.1611 13.8145C68.7145 14.0605 68.3636 14.2952 68.1084 14.5186C67.6527 14.915 67.3656 15.3548 67.2471 15.8379H72.5928V17H65.873ZM73.666 17C73.7116 16.1569 73.8848 15.4232 74.1855 14.7988C74.4909 14.1745 75.0833 13.6071 75.9629 13.0967L77.2754 12.3379C77.8633 11.9961 78.2757 11.7044 78.5127 11.4629C78.8864 11.0846 79.0732 10.6517 79.0732 10.1641C79.0732 9.5944 78.9023 9.14323 78.5605 8.81055C78.2188 8.47331 77.763 8.30469 77.1934 8.30469C76.3503 8.30469 75.7669 8.6237 75.4434 9.26172C75.2702 9.60352 75.1745 10.0775 75.1562 10.6836H73.9053C73.9189 9.83138 74.0762 9.13639 74.377 8.59863C74.9102 7.65072 75.8512 7.17676 77.2002 7.17676C78.3213 7.17676 79.1393 7.47982 79.6543 8.08594C80.1738 8.69206 80.4336 9.36654 80.4336 10.1094C80.4336 10.8932 80.1579 11.5632 79.6064 12.1191C79.2874 12.4427 78.7155 12.8346 77.8906 13.2949L76.9541 13.8145C76.5075 14.0605 76.1566 14.2952 75.9014 14.5186C75.4456 14.915 75.1585 15.3548 75.04 15.8379H80.3857V17H73.666ZM82.1836 18.4287C82.498 18.374 82.7191 18.153 82.8467 17.7656C82.915 17.5605 82.9492 17.3623 82.9492 17.1709C82.9492 17.139 82.9469 17.1094 82.9424 17.082C82.9424 17.0592 82.9378 17.0319 82.9287 17H82.1836V15.5098H83.6465V16.8906C83.6465 17.4329 83.5371 17.9092 83.3184 18.3193C83.0996 18.7295 82.7214 18.9824 82.1836 19.0781V18.4287ZM89.252 17C89.2975 16.1569 89.4707 15.4232 89.7715 14.7988C90.0768 14.1745 90.6693 13.6071 91.5488 13.0967L92.8613 12.3379C93.4492 11.9961 93.8617 11.7044 94.0986 11.4629C94.4723 11.0846 94.6592 10.6517 94.6592 10.1641C94.6592 9.5944 94.4883 9.14323 94.1465 8.81055C93.8047 8.47331 93.349 8.30469 92.7793 8.30469C91.9362 8.30469 91.3529 8.6237 91.0293 9.26172C90.8561 9.60352 90.7604 10.0775 90.7422 10.6836H89.4912C89.5049 9.83138 89.6621 9.13639 89.9629 8.59863C90.4961 7.65072 91.4372 7.17676 92.7861 7.17676C93.9072 7.17676 94.7253 7.47982 95.2402 8.08594C95.7598 8.69206 96.0195 9.36654 96.0195 10.1094C96.0195 10.8932 95.7438 11.5632 95.1924 12.1191C94.8734 12.4427 94.3014 12.8346 93.4766 13.2949L92.54 13.8145C92.0934 14.0605 91.7425 14.2952 91.4873 14.5186C91.0316 14.915 90.7445 15.3548 90.626 15.8379H95.9717V17H89.252ZM100.395 7.21094C101.661 7.21094 102.577 7.73275 103.143 8.77637C103.58 9.58301 103.799 10.6882 103.799 12.0918C103.799 13.4225 103.601 14.5231 103.204 15.3936C102.63 16.6423 101.691 17.2666 100.388 17.2666C99.2119 17.2666 98.3369 16.7562 97.7627 15.7354C97.2842 14.8831 97.0449 13.7393 97.0449 12.3037C97.0449 11.1917 97.1885 10.237 97.4756 9.43945C98.0133 7.95378 98.9863 7.21094 100.395 7.21094ZM100.381 16.1455C101.019 16.1455 101.527 15.863 101.905 15.2979C102.284 14.7327 102.473 13.68 102.473 12.1396C102.473 11.0277 102.336 10.1139 102.062 9.39844C101.789 8.67839 101.258 8.31836 100.47 8.31836C99.7451 8.31836 99.2142 8.66016 98.877 9.34375C98.5443 10.0228 98.3779 11.0254 98.3779 12.3516C98.3779 13.3496 98.485 14.1517 98.6992 14.7578C99.0273 15.6829 99.5879 16.1455 100.381 16.1455ZM104.838 17C104.883 16.1569 105.057 15.4232 105.357 14.7988C105.663 14.1745 106.255 13.6071 107.135 13.0967L108.447 12.3379C109.035 11.9961 109.448 11.7044 109.685 11.4629C110.058 11.0846 110.245 10.6517 110.245 10.1641C110.245 9.5944 110.074 9.14323 109.732 8.81055C109.391 8.47331 108.935 8.30469 108.365 8.30469C107.522 8.30469 106.939 8.6237 106.615 9.26172C106.442 9.60352 106.346 10.0775 106.328 10.6836H105.077C105.091 9.83138 105.248 9.13639 105.549 8.59863C106.082 7.65072 107.023 7.17676 108.372 7.17676C109.493 7.17676 110.311 7.47982 110.826 8.08594C111.346 8.69206 111.605 9.36654 111.605 10.1094C111.605 10.8932 111.33 11.5632 110.778 12.1191C110.459 12.4427 109.887 12.8346 109.062 13.2949L108.126 13.8145C107.679 14.0605 107.328 14.2952 107.073 14.5186C106.618 14.915 106.33 15.3548 106.212 15.8379H111.558V17H104.838ZM115.98 7.21094C117.247 7.21094 118.163 7.73275 118.729 8.77637C119.166 9.58301 119.385 10.6882 119.385 12.0918C119.385 13.4225 119.187 14.5231 118.79 15.3936C118.216 16.6423 117.277 17.2666 115.974 17.2666C114.798 17.2666 113.923 16.7562 113.349 15.7354C112.87 14.8831 112.631 13.7393 112.631 12.3037C112.631 11.1917 112.774 10.237 113.062 9.43945C113.599 7.95378 114.572 7.21094 115.98 7.21094ZM115.967 16.1455C116.605 16.1455 117.113 15.863 117.491 15.2979C117.869 14.7327 118.059 13.68 118.059 12.1396C118.059 11.0277 117.922 10.1139 117.648 9.39844C117.375 8.67839 116.844 8.31836 116.056 8.31836C115.331 8.31836 114.8 8.66016 114.463 9.34375C114.13 10.0228 113.964 11.0254 113.964 12.3516C113.964 13.3496 114.071 14.1517 114.285 14.7578C114.613 15.6829 115.174 16.1455 115.967 16.1455Z" fill="#828282"/>
<path d="M21.7311 3.75H5.08987C4.63034 3.75 4.25781 4.08579 4.25781 4.5V19.5C4.25781 19.9142 4.63034 20.25 5.08987 20.25H21.7311C22.1906 20.25 22.5632 19.9142 22.5632 19.5V4.5C22.5632 4.08579 22.1906 3.75 21.7311 3.75Z" stroke="#FF9F0D" stroke-width="1.5" stroke-linecap="round" stroke-linejoin="round"/>
<path d="M18.4023 2.25V5.25" stroke="#FF9F0D" stroke-width="1.5" stroke-linecap="round" stroke-linejoin="round"/>
<path d="M8.41797 2.25V5.25" stroke="#FF9F0D" stroke-width="1.5" stroke-linecap="round" stroke-linejoin="round"/>
<path d="M4.25781 8.25H22.5632" stroke="#FF9F0D" stroke-width="1.5" stroke-linecap="round" stroke-linejoin="round"/>
</svg>
