<svg width="25" height="24" viewBox="0 0 25 24" fill="none" xmlns="http://www.w3.org/2000/svg">
<path d="M12.7379 15C14.8066 15 16.4836 13.3211 16.4836 11.25C16.4836 9.17893 14.8066 7.5 12.7379 7.5C10.6692 7.5 8.99219 9.17893 8.99219 11.25C8.99219 13.3211 10.6692 15 12.7379 15Z" stroke="#FF9F0D" stroke-width="1.5" stroke-miterlimit="10"/>
<path d="M6.72266 18.6913C7.28696 17.5806 8.14726 16.6478 9.20833 15.9963C10.2694 15.3448 11.4899 15 12.7346 15C13.9793 15 15.1998 15.3448 16.2608 15.9963C17.3219 16.6478 18.1822 17.5806 18.7465 18.6913" stroke="#FF9F0D" stroke-width="1.5" stroke-linecap="round" stroke-linejoin="round"/>
<path d="M17.2305 5.25H21.7253" stroke="#FF9F0D" stroke-width="1.5" stroke-linecap="round" stroke-linejoin="round"/>
<path d="M19.4805 3V7.5" stroke="#FF9F0D" stroke-width="1.5" stroke-linecap="round" stroke-linejoin="round"/>
<path d="M21.6156 10.5804C21.9132 12.456 21.61 14.3776 20.7494 16.07C19.8888 17.7623 18.5151 19.1384 16.8251 20.0009C15.1352 20.8635 13.2159 21.1681 11.3423 20.8713C9.46881 20.5744 7.73727 19.6912 6.39598 18.3484C5.0547 17.0056 4.17256 15.2721 3.87604 13.3964C3.57952 11.5207 3.88384 9.59917 4.74538 7.90731C5.60692 6.21546 6.98143 4.84015 8.67183 3.97858C10.3622 3.11701 12.2817 2.81342 14.1551 3.11134" stroke="#FF9F0D" stroke-width="1.5" stroke-linecap="round" stroke-linejoin="round"/>
</svg>
