<svg width="19" height="19" viewBox="0 0 19 19" fill="none" xmlns="http://www.w3.org/2000/svg">
<path d="M18.2188 9.60742C18.2188 14.4238 14.3164 18.3262 9.5 18.3262C8.58594 18.3262 7.70703 18.2207 6.89844 17.9395C7.25 17.377 7.77734 16.4277 7.98828 15.6543C8.09375 15.2676 8.51562 13.5801 8.51562 13.5801C8.79688 14.1426 9.64062 14.5996 10.5195 14.5996C13.1562 14.5996 15.0547 12.1738 15.0547 9.18555C15.0547 6.30273 12.6992 4.12305 9.67578 4.12305C5.91406 4.12305 3.91016 6.6543 3.91016 9.39648C3.91016 10.6973 4.57812 12.2793 5.66797 12.8066C5.84375 12.877 5.94922 12.8418 5.98438 12.666C5.98438 12.5605 6.16016 11.9629 6.23047 11.6816C6.23047 11.6113 6.23047 11.5059 6.16016 11.4355C5.80859 11.0137 5.52734 10.2051 5.52734 9.43164C5.52734 7.5332 6.96875 5.66992 9.46484 5.66992C11.5742 5.66992 13.0859 7.11133 13.0859 9.2207C13.0859 11.5762 11.8906 13.1934 10.3438 13.1934C9.5 13.1934 8.86719 12.4902 9.04297 11.6465C9.28906 10.5918 9.78125 9.4668 9.78125 8.72852C9.78125 8.06055 9.42969 7.49805 8.69141 7.49805C7.8125 7.49805 7.10938 8.41211 7.10938 9.60742C7.10938 10.3809 7.35547 10.9082 7.35547 10.9082C7.35547 10.9082 6.51172 14.5645 6.33594 15.2324C6.16016 16.0059 6.23047 17.0605 6.30078 17.7285C3.06641 16.4629 0.78125 13.334 0.78125 9.60742C0.78125 4.79102 4.68359 0.888672 9.5 0.888672C14.3164 0.888672 18.2188 4.79102 18.2188 9.60742Z" fill="white"/>
</svg>
