<svg width="17" height="17" viewBox="0 0 17 17" fill="none" xmlns="http://www.w3.org/2000/svg">
<path d="M8.875 4.56445C11.0898 4.56445 12.918 6.39258 12.918 8.60742C12.918 10.8574 11.0898 12.6504 8.875 12.6504C6.625 12.6504 4.83203 10.8574 4.83203 8.60742C4.83203 6.39258 6.625 4.56445 8.875 4.56445ZM8.875 11.2441C10.3164 11.2441 11.4766 10.084 11.4766 8.60742C11.4766 7.16602 10.3164 6.00586 8.875 6.00586C7.39844 6.00586 6.23828 7.16602 6.23828 8.60742C6.23828 10.084 7.43359 11.2441 8.875 11.2441ZM14.0078 4.42383C14.0078 4.95117 13.5859 5.37305 13.0586 5.37305C12.5312 5.37305 12.1094 4.95117 12.1094 4.42383C12.1094 3.89648 12.5312 3.47461 13.0586 3.47461C13.5859 3.47461 14.0078 3.89648 14.0078 4.42383ZM16.6797 5.37305C16.75 6.67383 16.75 10.5762 16.6797 11.877C16.6094 13.1426 16.3281 14.2324 15.4141 15.1816C14.5 16.0957 13.375 16.377 12.1094 16.4473C10.8086 16.5176 6.90625 16.5176 5.60547 16.4473C4.33984 16.377 3.25 16.0957 2.30078 15.1816C1.38672 14.2324 1.10547 13.1426 1.03516 11.877C0.964844 10.5762 0.964844 6.67383 1.03516 5.37305C1.10547 4.10742 1.38672 2.98242 2.30078 2.06836C3.25 1.1543 4.33984 0.873047 5.60547 0.802734C6.90625 0.732422 10.8086 0.732422 12.1094 0.802734C13.375 0.873047 14.5 1.1543 15.4141 2.06836C16.3281 2.98242 16.6094 4.10742 16.6797 5.37305ZM14.9922 13.248C15.4141 12.2285 15.3086 9.76758 15.3086 8.60742C15.3086 7.48242 15.4141 5.02148 14.9922 3.9668C14.7109 3.29883 14.1836 2.73633 13.5156 2.49023C12.4609 2.06836 10 2.17383 8.875 2.17383C7.71484 2.17383 5.25391 2.06836 4.23438 2.49023C3.53125 2.77148 3.00391 3.29883 2.72266 3.9668C2.30078 5.02148 2.40625 7.48242 2.40625 8.60742C2.40625 9.76758 2.30078 12.2285 2.72266 13.248C3.00391 13.9512 3.53125 14.4785 4.23438 14.7598C5.25391 15.1816 7.71484 15.0762 8.875 15.0762C10 15.0762 12.4609 15.1816 13.5156 14.7598C14.1836 14.4785 14.7461 13.9512 14.9922 13.248Z" fill="#333333"/>
</svg>
