<svg width="18" height="15" viewBox="0 0 18 15" fill="none" xmlns="http://www.w3.org/2000/svg">
<path d="M16.1367 3.95117C16.1367 4.12695 16.1367 4.26758 16.1367 4.44336C16.1367 9.33008 12.4453 14.9199 5.66016 14.9199C3.55078 14.9199 1.61719 14.3223 0 13.2676C0.28125 13.3027 0.5625 13.3379 0.878906 13.3379C2.60156 13.3379 4.18359 12.7402 5.44922 11.7559C3.83203 11.7207 2.46094 10.666 2.00391 9.18945C2.25 9.22461 2.46094 9.25977 2.70703 9.25977C3.02344 9.25977 3.375 9.18945 3.65625 9.11914C1.96875 8.76758 0.703125 7.29102 0.703125 5.49805V5.46289C1.19531 5.74414 1.79297 5.88477 2.39062 5.91992C1.37109 5.25195 0.738281 4.12695 0.738281 2.86133C0.738281 2.1582 0.914062 1.52539 1.23047 0.998047C3.05859 3.21289 5.80078 4.68945 8.85938 4.86523C8.78906 4.58398 8.75391 4.30273 8.75391 4.02148C8.75391 1.98242 10.4062 0.330078 12.4453 0.330078C13.5 0.330078 14.4492 0.751953 15.1523 1.49023C15.9609 1.31445 16.7695 0.998047 17.4727 0.576172C17.1914 1.45508 16.6289 2.1582 15.8555 2.61523C16.5938 2.54492 17.332 2.33398 17.9648 2.05273C17.4727 2.79102 16.8398 3.42383 16.1367 3.95117Z" fill="#333333"/>
</svg>
