<svg width="21" height="15" viewBox="0 0 21 15" fill="none" xmlns="http://www.w3.org/2000/svg">
<path d="M19.6758 3.00195C20.0977 4.47852 20.0977 7.64258 20.0977 7.64258C20.0977 7.64258 20.0977 10.7715 19.6758 12.2832C19.4648 13.127 18.7969 13.7598 17.9883 13.9707C16.4766 14.3574 10.5 14.3574 10.5 14.3574C10.5 14.3574 4.48828 14.3574 2.97656 13.9707C2.16797 13.7598 1.5 13.127 1.28906 12.2832C0.867188 10.7715 0.867188 7.64258 0.867188 7.64258C0.867188 7.64258 0.867188 4.47852 1.28906 3.00195C1.5 2.1582 2.16797 1.49023 2.97656 1.2793C4.48828 0.857422 10.5 0.857422 10.5 0.857422C10.5 0.857422 16.4766 0.857422 17.9883 1.2793C18.7969 1.49023 19.4648 2.1582 19.6758 3.00195ZM8.53125 10.4902L13.5234 7.64258L8.53125 4.79492V10.4902Z" fill="#333333"/>
</svg>
