<svg width="49" height="49" viewBox="0 0 49 49" fill="none" xmlns="http://www.w3.org/2000/svg">
<path d="M20.8468 27.9143H8.10455C7.70697 27.9143 7.32567 27.7563 7.04454 27.475C6.76341 27.1938 6.60547 26.8124 6.60547 26.4146V14.4176C6.60547 14.0199 6.76341 13.6384 7.04454 13.3572C7.32567 13.076 7.70697 12.918 8.10455 12.918H19.3477C19.7453 12.918 20.1266 13.076 20.4077 13.3572C20.6888 13.6384 20.8468 14.0199 20.8468 14.4176V30.9135C20.8468 32.9022 20.0571 34.8094 18.6514 36.2155C17.2457 37.6217 15.3393 38.4117 13.3513 38.4117" stroke="#FF9F0D" stroke-width="1.5" stroke-linecap="round" stroke-linejoin="round"/>
<path d="M42.5831 27.9143H29.8409C29.4433 27.9143 29.062 27.7563 28.7809 27.475C28.4997 27.1938 28.3418 26.8124 28.3418 26.4146V14.4176C28.3418 14.0199 28.4997 13.6384 28.7809 13.3572C29.062 13.076 29.4433 12.918 29.8409 12.918H41.084C41.4816 12.918 41.8629 13.076 42.144 13.3572C42.4252 13.6384 42.5831 14.0199 42.5831 14.4176V30.9135C42.5831 32.9022 41.7934 34.8094 40.3877 36.2155C38.9821 37.6217 37.0756 38.4117 35.0877 38.4117" stroke="#FF9F0D" stroke-width="1.5" stroke-linecap="round" stroke-linejoin="round"/>
</svg>
