<svg width="116" height="20" viewBox="0 0 116 20" fill="none" xmlns="http://www.w3.org/2000/svg">
<path d="M10.3444 14.8975L14.2819 17.3975C14.7897 17.7178 15.4147 17.2412 15.2662 16.6553L14.1256 12.1709C14.0948 12.0466 14.0997 11.9161 14.1398 11.7945C14.1798 11.6729 14.2535 11.565 14.3522 11.4834L17.8834 8.53811C18.3444 8.15529 18.11 7.38186 17.5084 7.34279L12.899 7.04592C12.7733 7.0386 12.6524 6.99481 12.5511 6.91988C12.4498 6.84496 12.3725 6.74216 12.3287 6.62404L10.61 2.29592C10.5645 2.17084 10.4816 2.0628 10.3726 1.98645C10.2636 1.9101 10.1337 1.86914 10.0006 1.86914C9.86751 1.86914 9.73764 1.9101 9.62863 1.98645C9.51961 2.0628 9.43673 2.17084 9.39123 2.29592L7.67248 6.62404C7.62868 6.74216 7.55141 6.84496 7.45013 6.91988C7.34885 6.99481 7.22794 7.0386 7.10217 7.04592L2.49279 7.34279C1.89123 7.38186 1.65686 8.15529 2.11779 8.53811L5.64904 11.4834C5.74774 11.565 5.82138 11.6729 5.86146 11.7945C5.90155 11.9161 5.90645 12.0466 5.87561 12.1709L4.82092 16.3272C4.64123 17.0303 5.39123 17.6006 5.99279 17.2178L9.65686 14.8975C9.7596 14.8321 9.87885 14.7974 10.0006 14.7974C10.1224 14.7974 10.2416 14.8321 10.3444 14.8975Z" fill="#FF9F0D"/>
<path d="M34.3444 14.8975L38.2819 17.3975C38.7897 17.7178 39.4147 17.2412 39.2662 16.6553L38.1256 12.1709C38.0948 12.0466 38.0997 11.9161 38.1398 11.7945C38.1798 11.6729 38.2535 11.565 38.3522 11.4834L41.8834 8.53811C42.3444 8.15529 42.11 7.38186 41.5084 7.34279L36.899 7.04592C36.7733 7.0386 36.6524 6.99481 36.5511 6.91988C36.4498 6.84496 36.3725 6.74216 36.3287 6.62404L34.61 2.29592C34.5645 2.17084 34.4816 2.0628 34.3726 1.98645C34.2636 1.9101 34.1337 1.86914 34.0006 1.86914C33.8675 1.86914 33.7376 1.9101 33.6286 1.98645C33.5196 2.0628 33.4367 2.17084 33.3912 2.29592L31.6725 6.62404C31.6287 6.74216 31.5514 6.84496 31.4501 6.91988C31.3488 6.99481 31.2279 7.0386 31.1022 7.04592L26.4928 7.34279C25.8912 7.38186 25.6569 8.15529 26.1178 8.53811L29.649 11.4834C29.7477 11.565 29.8214 11.6729 29.8615 11.7945C29.9015 11.9161 29.9064 12.0466 29.8756 12.1709L28.8209 16.3272C28.6412 17.0303 29.3912 17.6006 29.9928 17.2178L33.6569 14.8975C33.7596 14.8321 33.8788 14.7974 34.0006 14.7974C34.1224 14.7974 34.2416 14.8321 34.3444 14.8975Z" fill="#FF9F0D"/>
<path d="M58.3444 14.8975L62.2819 17.3975C62.7897 17.7178 63.4147 17.2412 63.2662 16.6553L62.1256 12.1709C62.0948 12.0466 62.0997 11.9161 62.1398 11.7945C62.1798 11.6729 62.2535 11.565 62.3522 11.4834L65.8834 8.53811C66.3444 8.15529 66.11 7.38186 65.5084 7.34279L60.899 7.04592C60.7733 7.0386 60.6524 6.99481 60.5511 6.91988C60.4498 6.84496 60.3725 6.74216 60.3287 6.62404L58.61 2.29592C58.5645 2.17084 58.4816 2.0628 58.3726 1.98645C58.2636 1.9101 58.1337 1.86914 58.0006 1.86914C57.8675 1.86914 57.7376 1.9101 57.6286 1.98645C57.5196 2.0628 57.4367 2.17084 57.3912 2.29592L55.6725 6.62404C55.6287 6.74216 55.5514 6.84496 55.4501 6.91988C55.3488 6.99481 55.2279 7.0386 55.1022 7.04592L50.4928 7.34279C49.8912 7.38186 49.6569 8.15529 50.1178 8.53811L53.649 11.4834C53.7477 11.565 53.8214 11.6729 53.8615 11.7945C53.9015 11.9161 53.9064 12.0466 53.8756 12.1709L52.8209 16.3272C52.6412 17.0303 53.3912 17.6006 53.9928 17.2178L57.6569 14.8975C57.7596 14.8321 57.8788 14.7974 58.0006 14.7974C58.1224 14.7974 58.2416 14.8321 58.3444 14.8975Z" fill="#FF9F0D"/>
<path d="M82.3444 14.8975L86.2819 17.3975C86.7897 17.7178 87.4147 17.2412 87.2662 16.6553L86.1256 12.1709C86.0948 12.0466 86.0997 11.9161 86.1398 11.7945C86.1798 11.6729 86.2535 11.565 86.3522 11.4834L89.8834 8.53811C90.3444 8.15529 90.11 7.38186 89.5084 7.34279L84.899 7.04592C84.7733 7.0386 84.6524 6.99481 84.5511 6.91988C84.4498 6.84496 84.3725 6.74216 84.3287 6.62404L82.61 2.29592C82.5645 2.17084 82.4816 2.0628 82.3726 1.98645C82.2636 1.9101 82.1337 1.86914 82.0006 1.86914C81.8675 1.86914 81.7376 1.9101 81.6286 1.98645C81.5196 2.0628 81.4367 2.17084 81.3912 2.29592L79.6725 6.62404C79.6287 6.74216 79.5514 6.84496 79.4501 6.91988C79.3488 6.99481 79.2279 7.0386 79.1022 7.04592L74.4928 7.34279C73.8912 7.38186 73.6569 8.15529 74.1178 8.53811L77.649 11.4834C77.7477 11.565 77.8214 11.6729 77.8615 11.7945C77.9015 11.9161 77.9064 12.0466 77.8756 12.1709L76.8209 16.3272C76.6412 17.0303 77.3912 17.6006 77.9928 17.2178L81.6569 14.8975C81.7596 14.8321 81.8788 14.7974 82.0006 14.7974C82.1224 14.7974 82.2416 14.8321 82.3444 14.8975Z" fill="#FF9F0D"/>
<path d="M106.344 14.8975L110.282 17.3975C110.79 17.7178 111.415 17.2412 111.266 16.6553L110.126 12.1709C110.095 12.0466 110.1 11.9161 110.14 11.7945C110.18 11.6729 110.253 11.565 110.352 11.4834L113.883 8.53811C114.344 8.15529 114.11 7.38186 113.508 7.34279L108.899 7.04592C108.773 7.0386 108.652 6.99481 108.551 6.91988C108.45 6.84496 108.373 6.74216 108.329 6.62404L106.61 2.29592C106.564 2.17084 106.482 2.0628 106.373 1.98645C106.264 1.9101 106.134 1.86914 106.001 1.86914C105.868 1.86914 105.738 1.9101 105.629 1.98645C105.52 2.0628 105.437 2.17084 105.391 2.29592L103.672 6.62404C103.629 6.74216 103.551 6.84496 103.45 6.91988C103.349 6.99481 103.228 7.0386 103.102 7.04592L98.4928 7.34279C97.8912 7.38186 97.6569 8.15529 98.1178 8.53811L101.649 11.4834C101.748 11.565 101.821 11.6729 101.861 11.7945C101.902 11.9161 101.906 12.0466 101.876 12.1709L100.821 16.3272C100.641 17.0303 101.391 17.6006 101.993 17.2178L105.657 14.8975C105.76 14.8321 105.879 14.7974 106.001 14.7974C106.122 14.7974 106.242 14.8321 106.344 14.8975Z" fill="#FF9F0D"/>
</svg>
