<svg width="422" height="70" viewBox="0 0 422 70" fill="none" xmlns="http://www.w3.org/2000/svg">
<path d="M345.5 69.5V0.5H420.5V69.5H345.5Z" fill="#FF9F0D" stroke="#FF9F0D"/>
<path d="M0.5 69.5V0.5H421.32V69.5H0.5Z" stroke="#E0E0E0"/>
<path d="M27.7727 32.2727C27.7045 31.697 27.428 31.25 26.9432 30.9318C26.4583 30.6136 25.8636 30.4545 25.1591 30.4545C24.6439 30.4545 24.1932 30.5379 23.8068 30.7045C23.4242 30.8712 23.125 31.1004 22.9091 31.392C22.697 31.6837 22.5909 32.0152 22.5909 32.3864C22.5909 32.697 22.6648 32.964 22.8125 33.1875C22.964 33.4072 23.1572 33.5909 23.392 33.7386C23.6269 33.8826 23.8731 34.0019 24.1307 34.0966C24.3883 34.1875 24.625 34.2614 24.8409 34.3182L26.0227 34.6364C26.3258 34.7159 26.6629 34.8258 27.0341 34.9659C27.4091 35.1061 27.767 35.2973 28.108 35.5398C28.4527 35.7784 28.7367 36.0852 28.9602 36.4602C29.1837 36.8352 29.2955 37.2955 29.2955 37.8409C29.2955 38.4697 29.1307 39.0379 28.8011 39.5455C28.4754 40.053 27.9981 40.4564 27.3693 40.7557C26.7443 41.0549 25.9848 41.2045 25.0909 41.2045C24.2576 41.2045 23.536 41.0701 22.9261 40.8011C22.3201 40.5322 21.8428 40.1572 21.4943 39.6761C21.1496 39.1951 20.9545 38.6364 20.9091 38H22.3636C22.4015 38.4394 22.5492 38.803 22.8068 39.0909C23.0682 39.375 23.3977 39.5871 23.7955 39.7273C24.197 39.8636 24.6288 39.9318 25.0909 39.9318C25.6288 39.9318 26.1117 39.8447 26.5398 39.6705C26.9678 39.4924 27.3068 39.2462 27.5568 38.9318C27.8068 38.6136 27.9318 38.2424 27.9318 37.8182C27.9318 37.4318 27.8239 37.1174 27.608 36.875C27.392 36.6326 27.108 36.4356 26.7557 36.2841C26.4034 36.1326 26.0227 36 25.6136 35.8864L24.1818 35.4773C23.2727 35.2159 22.553 34.8428 22.0227 34.358C21.4924 33.8731 21.2273 33.2386 21.2273 32.4545C21.2273 31.803 21.4034 31.2348 21.7557 30.75C22.1117 30.2614 22.589 29.8826 23.1875 29.6136C23.7898 29.3409 24.4621 29.2045 25.2045 29.2045C25.9545 29.2045 26.6212 29.339 27.2045 29.608C27.7879 29.8731 28.25 30.2367 28.5909 30.6989C28.9356 31.161 29.1174 31.6856 29.1364 32.2727H27.7727ZM35.0895 41.1818C34.2486 41.1818 33.5232 40.9962 32.9134 40.625C32.3073 40.25 31.8395 39.7273 31.5099 39.0568C31.1842 38.3826 31.0213 37.5985 31.0213 36.7045C31.0213 35.8106 31.1842 35.0227 31.5099 34.3409C31.8395 33.6553 32.2978 33.1212 32.8849 32.7386C33.4759 32.3523 34.1652 32.1591 34.9531 32.1591C35.4077 32.1591 35.8565 32.2348 36.2997 32.3864C36.7429 32.5379 37.1463 32.7841 37.5099 33.125C37.8736 33.4621 38.1634 33.9091 38.3793 34.4659C38.5952 35.0227 38.7031 35.7083 38.7031 36.5227V37.0909H31.9759V35.9318H37.3395C37.3395 35.4394 37.241 35 37.044 34.6136C36.8509 34.2273 36.5743 33.9223 36.2145 33.6989C35.8584 33.4754 35.438 33.3636 34.9531 33.3636C34.419 33.3636 33.9569 33.4962 33.5668 33.7614C33.1804 34.0227 32.883 34.3636 32.6747 34.7841C32.4664 35.2045 32.3622 35.6553 32.3622 36.1364V36.9091C32.3622 37.5682 32.4759 38.1269 32.7031 38.5852C32.9342 39.0398 33.2543 39.3864 33.6634 39.625C34.0724 39.8598 34.5478 39.9773 35.0895 39.9773C35.4418 39.9773 35.7599 39.928 36.044 39.8295C36.3319 39.7273 36.58 39.5758 36.7884 39.375C36.9967 39.1705 37.1577 38.9167 37.2713 38.6136L38.5668 38.9773C38.4304 39.4167 38.2012 39.803 37.8793 40.1364C37.5573 40.4659 37.1596 40.7235 36.6861 40.9091C36.2126 41.0909 35.6804 41.1818 35.0895 41.1818ZM43.3111 41.2045C42.758 41.2045 42.2562 41.1004 41.8054 40.892C41.3546 40.6799 40.9967 40.375 40.7315 39.9773C40.4664 39.5758 40.3338 39.0909 40.3338 38.5227C40.3338 38.0227 40.4323 37.6174 40.6293 37.3068C40.8262 36.9924 41.0895 36.7462 41.419 36.5682C41.7486 36.3902 42.1122 36.2576 42.5099 36.1705C42.9115 36.0795 43.3149 36.0076 43.7202 35.9545C44.2505 35.8864 44.6804 35.8352 45.0099 35.8011C45.3433 35.7633 45.5857 35.7008 45.7372 35.6136C45.8925 35.5265 45.9702 35.375 45.9702 35.1591V35.1136C45.9702 34.553 45.8168 34.1174 45.5099 33.8068C45.2069 33.4962 44.7467 33.3409 44.1293 33.3409C43.4891 33.3409 42.9872 33.4811 42.6236 33.7614C42.2599 34.0417 42.0043 34.3409 41.8565 34.6591L40.5838 34.2045C40.8111 33.6742 41.1141 33.2614 41.4929 32.9659C41.8755 32.6667 42.2921 32.4583 42.7429 32.3409C43.1974 32.2197 43.6444 32.1591 44.0838 32.1591C44.3641 32.1591 44.6861 32.1932 45.0497 32.2614C45.4171 32.3258 45.7713 32.4602 46.1122 32.6648C46.4569 32.8693 46.7429 33.178 46.9702 33.5909C47.1974 34.0038 47.3111 34.5568 47.3111 35.25V41H45.9702V39.8182H45.902C45.8111 40.0076 45.6596 40.2102 45.4474 40.4261C45.2353 40.642 44.9531 40.8258 44.6009 40.9773C44.2486 41.1288 43.8187 41.2045 43.3111 41.2045ZM43.5156 40C44.0459 40 44.4929 39.8958 44.8565 39.6875C45.224 39.4792 45.5005 39.2102 45.6861 38.8807C45.8755 38.5511 45.9702 38.2045 45.9702 37.8409V36.6136C45.9134 36.6818 45.7884 36.7443 45.5952 36.8011C45.4058 36.8542 45.1861 36.9015 44.9361 36.9432C44.6899 36.9811 44.4493 37.0152 44.2145 37.0455C43.9834 37.072 43.7959 37.0947 43.652 37.1136C43.3035 37.1591 42.9777 37.233 42.6747 37.3352C42.3755 37.4337 42.133 37.5833 41.9474 37.7841C41.7656 37.9811 41.6747 38.25 41.6747 38.5909C41.6747 39.0568 41.8471 39.4091 42.1918 39.6477C42.5402 39.8826 42.9815 40 43.5156 40ZM49.7585 41V32.2727H51.054V33.5909H51.1449C51.304 33.1591 51.5919 32.8087 52.0085 32.5398C52.4252 32.2708 52.8949 32.1364 53.4176 32.1364C53.5161 32.1364 53.6392 32.1383 53.7869 32.142C53.9347 32.1458 54.0464 32.1515 54.1222 32.1591V33.5227C54.0767 33.5114 53.9725 33.4943 53.8097 33.4716C53.6506 33.4451 53.482 33.4318 53.304 33.4318C52.8797 33.4318 52.5009 33.5208 52.1676 33.6989C51.8381 33.8731 51.5767 34.1155 51.3835 34.4261C51.1941 34.733 51.0994 35.0833 51.0994 35.4773V41H49.7585ZM58.9915 41.1818C58.1733 41.1818 57.4688 40.9886 56.8778 40.6023C56.2869 40.2159 55.8324 39.6837 55.5142 39.0057C55.196 38.3277 55.0369 37.553 55.0369 36.6818C55.0369 35.7955 55.1998 35.0133 55.5256 34.3352C55.8551 33.6534 56.3134 33.1212 56.9006 32.7386C57.4915 32.3523 58.1809 32.1591 58.9688 32.1591C59.5824 32.1591 60.1354 32.2727 60.6278 32.5C61.1203 32.7273 61.5237 33.0455 61.8381 33.4545C62.1525 33.8636 62.3475 34.3409 62.4233 34.8864H61.0824C60.9801 34.4886 60.7528 34.1364 60.4006 33.8295C60.0521 33.5189 59.5824 33.3636 58.9915 33.3636C58.4688 33.3636 58.0104 33.5 57.6165 33.7727C57.2263 34.0417 56.9214 34.4223 56.7017 34.9148C56.4858 35.4034 56.3778 35.9773 56.3778 36.6364C56.3778 37.3106 56.4839 37.8977 56.696 38.3977C56.9119 38.8977 57.215 39.286 57.6051 39.5625C57.9991 39.839 58.4612 39.9773 58.9915 39.9773C59.34 39.9773 59.6562 39.9167 59.9403 39.7955C60.2244 39.6742 60.465 39.5 60.6619 39.2727C60.8589 39.0455 60.9991 38.7727 61.0824 38.4545H62.4233C62.3475 38.9697 62.16 39.4337 61.8608 39.8466C61.5653 40.2557 61.1733 40.5814 60.6847 40.8239C60.1998 41.0625 59.6354 41.1818 58.9915 41.1818ZM65.7244 35.75V41H64.3835V29.3636H65.7244V33.6364H65.8381C66.0426 33.1856 66.3494 32.8277 66.7585 32.5625C67.1714 32.2936 67.7206 32.1591 68.4062 32.1591C69.0009 32.1591 69.5218 32.2784 69.9688 32.517C70.4157 32.7519 70.7623 33.1136 71.0085 33.6023C71.2585 34.0871 71.3835 34.7045 71.3835 35.4545V41H70.0426V35.5455C70.0426 34.8523 69.8627 34.3163 69.5028 33.9375C69.1468 33.5549 68.6525 33.3636 68.0199 33.3636C67.5805 33.3636 67.1866 33.4564 66.8381 33.642C66.4934 33.8277 66.2206 34.0985 66.0199 34.4545C65.8229 34.8106 65.7244 35.2424 65.7244 35.75ZM77.5185 29.3636H79.1321L82.3594 34.7955H82.4957L85.723 29.3636H87.3366L83.1321 36.2045V41H81.723V36.2045L77.5185 29.3636ZM91.2884 41.1818C90.5005 41.1818 89.8092 40.9943 89.2145 40.6193C88.6236 40.2443 88.1615 39.7197 87.8281 39.0455C87.4986 38.3712 87.3338 37.5833 87.3338 36.6818C87.3338 35.7727 87.4986 34.9792 87.8281 34.3011C88.1615 33.6231 88.6236 33.0966 89.2145 32.7216C89.8092 32.3466 90.5005 32.1591 91.2884 32.1591C92.0762 32.1591 92.7656 32.3466 93.3565 32.7216C93.9512 33.0966 94.4134 33.6231 94.7429 34.3011C95.0762 34.9792 95.2429 35.7727 95.2429 36.6818C95.2429 37.5833 95.0762 38.3712 94.7429 39.0455C94.4134 39.7197 93.9512 40.2443 93.3565 40.6193C92.7656 40.9943 92.0762 41.1818 91.2884 41.1818ZM91.2884 39.9773C91.8868 39.9773 92.3793 39.8239 92.7656 39.517C93.152 39.2102 93.438 38.8068 93.6236 38.3068C93.8092 37.8068 93.902 37.2652 93.902 36.6818C93.902 36.0985 93.8092 35.5549 93.6236 35.0511C93.438 34.5473 93.152 34.1402 92.7656 33.8295C92.3793 33.5189 91.8868 33.3636 91.2884 33.3636C90.6899 33.3636 90.1974 33.5189 89.8111 33.8295C89.4247 34.1402 89.1387 34.5473 88.9531 35.0511C88.7675 35.5549 88.6747 36.0985 88.6747 36.6818C88.6747 37.2652 88.7675 37.8068 88.9531 38.3068C89.1387 38.8068 89.4247 39.2102 89.8111 39.517C90.1974 39.8239 90.6899 39.9773 91.2884 39.9773ZM102.79 37.4318V32.2727H104.131V41H102.79V39.5227H102.699C102.494 39.9659 102.176 40.3428 101.744 40.6534C101.313 40.9602 100.767 41.1136 100.108 41.1136C99.5625 41.1136 99.0777 40.9943 98.6534 40.7557C98.2292 40.5133 97.8958 40.1496 97.6534 39.6648C97.411 39.1761 97.2898 38.5606 97.2898 37.8182V32.2727H98.6307V37.7273C98.6307 38.3636 98.8087 38.8712 99.1648 39.25C99.5246 39.6288 99.983 39.8182 100.54 39.8182C100.873 39.8182 101.212 39.733 101.557 39.5625C101.905 39.392 102.197 39.1307 102.432 38.7784C102.67 38.4261 102.79 37.9773 102.79 37.4318ZM106.587 41V32.2727H107.882V33.5909H107.973C108.132 33.1591 108.42 32.8087 108.837 32.5398C109.253 32.2708 109.723 32.1364 110.246 32.1364C110.344 32.1364 110.467 32.1383 110.615 32.142C110.763 32.1458 110.875 32.1515 110.95 32.1591V33.5227C110.905 33.5114 110.801 33.4943 110.638 33.4716C110.479 33.4451 110.31 33.4318 110.132 33.4318C109.708 33.4318 109.329 33.5208 108.996 33.6989C108.666 33.8731 108.405 34.1155 108.212 34.4261C108.022 34.733 107.928 35.0833 107.928 35.4773V41H106.587ZM117.222 41V29.3636H118.631V35.1364H118.767L123.994 29.3636H125.835L120.949 34.6136L125.835 41H124.131L120.085 35.5909L118.631 37.2273V41H117.222ZM130.496 41.1818C129.655 41.1818 128.929 40.9962 128.32 40.625C127.714 40.25 127.246 39.7273 126.916 39.0568C126.59 38.3826 126.428 37.5985 126.428 36.7045C126.428 35.8106 126.59 35.0227 126.916 34.3409C127.246 33.6553 127.704 33.1212 128.291 32.7386C128.882 32.3523 129.571 32.1591 130.359 32.1591C130.814 32.1591 131.263 32.2348 131.706 32.3864C132.149 32.5379 132.553 32.7841 132.916 33.125C133.28 33.4621 133.57 33.9091 133.786 34.4659C134.001 35.0227 134.109 35.7083 134.109 36.5227V37.0909H127.382V35.9318H132.746C132.746 35.4394 132.647 35 132.45 34.6136C132.257 34.2273 131.981 33.9223 131.621 33.6989C131.265 33.4754 130.844 33.3636 130.359 33.3636C129.825 33.3636 129.363 33.4962 128.973 33.7614C128.587 34.0227 128.289 34.3636 128.081 34.7841C127.873 35.2045 127.768 35.6553 127.768 36.1364V36.9091C127.768 37.5682 127.882 38.1269 128.109 38.5852C128.34 39.0398 128.661 39.3864 129.07 39.625C129.479 39.8598 129.954 39.9773 130.496 39.9773C130.848 39.9773 131.166 39.928 131.45 39.8295C131.738 39.7273 131.986 39.5758 132.195 39.375C132.403 39.1705 132.564 38.9167 132.678 38.6136L133.973 38.9773C133.837 39.4167 133.607 39.803 133.286 40.1364C132.964 40.4659 132.566 40.7235 132.092 40.9091C131.619 41.0909 131.087 41.1818 130.496 41.1818ZM138.126 41L135.467 32.2727H136.876L138.763 38.9545H138.854L140.717 32.2727H142.149L143.99 38.9318H144.081L145.967 32.2727H147.376L144.717 41H143.399L141.49 34.2955H141.354L139.445 41H138.126ZM152.398 41.1818C151.61 41.1818 150.919 40.9943 150.324 40.6193C149.733 40.2443 149.271 39.7197 148.938 39.0455C148.608 38.3712 148.443 37.5833 148.443 36.6818C148.443 35.7727 148.608 34.9792 148.938 34.3011C149.271 33.6231 149.733 33.0966 150.324 32.7216C150.919 32.3466 151.61 32.1591 152.398 32.1591C153.186 32.1591 153.875 32.3466 154.466 32.7216C155.061 33.0966 155.523 33.6231 155.852 34.3011C156.186 34.9792 156.352 35.7727 156.352 36.6818C156.352 37.5833 156.186 38.3712 155.852 39.0455C155.523 39.7197 155.061 40.2443 154.466 40.6193C153.875 40.9943 153.186 41.1818 152.398 41.1818ZM152.398 39.9773C152.996 39.9773 153.489 39.8239 153.875 39.517C154.261 39.2102 154.547 38.8068 154.733 38.3068C154.919 37.8068 155.011 37.2652 155.011 36.6818C155.011 36.0985 154.919 35.5549 154.733 35.0511C154.547 34.5473 154.261 34.1402 153.875 33.8295C153.489 33.5189 152.996 33.3636 152.398 33.3636C151.799 33.3636 151.307 33.5189 150.92 33.8295C150.534 34.1402 150.248 34.5473 150.062 35.0511C149.877 35.5549 149.784 36.0985 149.784 36.6818C149.784 37.2652 149.877 37.8068 150.062 38.3068C150.248 38.8068 150.534 39.2102 150.92 39.517C151.307 39.8239 151.799 39.9773 152.398 39.9773ZM158.399 41V32.2727H159.695V33.5909H159.786C159.945 33.1591 160.232 32.8087 160.649 32.5398C161.066 32.2708 161.536 32.1364 162.058 32.1364C162.157 32.1364 162.28 32.1383 162.428 32.142C162.575 32.1458 162.687 32.1515 162.763 32.1591V33.5227C162.717 33.5114 162.613 33.4943 162.45 33.4716C162.291 33.4451 162.123 33.4318 161.945 33.4318C161.52 33.4318 161.142 33.5208 160.808 33.6989C160.479 33.8731 160.217 34.1155 160.024 34.4261C159.835 34.733 159.74 35.0833 159.74 35.4773V41H158.399ZM167.382 41.1818C166.655 41.1818 166.013 40.9981 165.456 40.6307C164.899 40.2595 164.464 39.7367 164.149 39.0625C163.835 38.3845 163.678 37.5833 163.678 36.6591C163.678 35.7424 163.835 34.947 164.149 34.2727C164.464 33.5985 164.901 33.0777 165.462 32.7102C166.022 32.3428 166.67 32.1591 167.405 32.1591C167.973 32.1591 168.422 32.2538 168.751 32.4432C169.085 32.6288 169.339 32.8409 169.513 33.0795C169.691 33.3144 169.829 33.5076 169.928 33.6591H170.041V29.3636H171.382V41H170.087V39.6591H169.928C169.829 39.8182 169.689 40.0189 169.507 40.2614C169.325 40.5 169.066 40.714 168.729 40.9034C168.392 41.089 167.943 41.1818 167.382 41.1818ZM167.564 39.9773C168.102 39.9773 168.556 39.8371 168.928 39.5568C169.299 39.2727 169.581 38.8807 169.774 38.3807C169.967 37.8769 170.064 37.2955 170.064 36.6364C170.064 35.9848 169.969 35.4148 169.78 34.9261C169.59 34.4337 169.31 34.0511 168.939 33.7784C168.568 33.5019 168.109 33.3636 167.564 33.3636C166.996 33.3636 166.522 33.5095 166.143 33.8011C165.768 34.089 165.486 34.4811 165.297 34.9773C165.111 35.4697 165.018 36.0227 165.018 36.6364C165.018 37.2576 165.113 37.822 165.303 38.3295C165.496 38.8333 165.78 39.2348 166.155 39.5341C166.534 39.8295 167.003 39.9773 167.564 39.9773ZM175.001 41.0909C174.721 41.0909 174.481 40.9905 174.28 40.7898C174.079 40.589 173.979 40.3485 173.979 40.0682C173.979 39.7879 174.079 39.5473 174.28 39.3466C174.481 39.1458 174.721 39.0455 175.001 39.0455C175.282 39.0455 175.522 39.1458 175.723 39.3466C175.924 39.5473 176.024 39.7879 176.024 40.0682C176.024 40.2538 175.977 40.4242 175.882 40.5795C175.791 40.7348 175.668 40.8598 175.513 40.9545C175.361 41.0455 175.191 41.0909 175.001 41.0909ZM179.408 41.0909C179.127 41.0909 178.887 40.9905 178.686 40.7898C178.485 40.589 178.385 40.3485 178.385 40.0682C178.385 39.7879 178.485 39.5473 178.686 39.3466C178.887 39.1458 179.127 39.0455 179.408 39.0455C179.688 39.0455 179.929 39.1458 180.129 39.3466C180.33 39.5473 180.43 39.7879 180.43 40.0682C180.43 40.2538 180.383 40.4242 180.288 40.5795C180.197 40.7348 180.074 40.8598 179.919 40.9545C179.768 41.0455 179.597 41.0909 179.408 41.0909Z" fill="#BDBDBD"/>
<path d="M381.875 41.75C386.224 41.75 389.75 38.2242 389.75 33.875C389.75 29.5258 386.224 26 381.875 26C377.526 26 374 29.5258 374 33.875C374 38.2242 377.526 41.75 381.875 41.75Z" stroke="white" stroke-width="1.5" stroke-linecap="round" stroke-linejoin="round"/>
<path d="M387.441 39.4434L391.998 43.9997" stroke="white" stroke-width="1.5" stroke-linecap="round" stroke-linejoin="round"/>
</svg>
